<?xml version="1.0" standalone="no"?>
<!DOCTYPE svg PUBLIC "-//W3C//DTD SVG 20010904//EN"
 "http://www.w3.org/TR/2001/REC-SVG-20010904/DTD/svg10.dtd">
<svg version="1.0" xmlns="http://www.w3.org/2000/svg"
 width="1200.000000pt" height="1200.000000pt" viewBox="0 0 1200.000000 1200.000000"
 preserveAspectRatio="xMidYMid meet">
<metadata>
Created by potrace 1.11, written by Peter Selinger 2001-2013
</metadata>
<g transform="translate(0.000000,1200.000000) scale(0.100000,-0.100000)"
fill="#000000" stroke="none">
<path d="M5515 11185 l-477 -815 -137 93 c-75 52 -417 284 -761 517 -344 232
-630 429 -636 436 -17 21 -34 17 -34 -8 0 -31 -606 -2389 -617 -2398 -9 -8
-2517 -560 -2546 -560 -21 0 -22 -9 -3 -24 8 -6 222 -267 476 -581 l462 -569
-168 -38 c-93 -21 -181 -39 -196 -40 -16 0 -28 -5 -28 -11 0 -5 22 -35 48 -66
142 -165 782 -962 779 -969 -51 -94 -744 -1270 -754 -1278 -16 -14 -17 -34 -2
-34 8 0 1173 -784 1197 -805 2 -2 -67 -276 -153 -610 -86 -334 -155 -608 -153
-610 2 -1 97 17 213 41 115 23 211 41 212 40 1 -1 -85 -344 -192 -761 -107
-417 -193 -760 -192 -762 2 -2 17 1 33 6 71 23 2514 553 2527 548 7 -3 364
-437 793 -965 428 -529 784 -961 790 -961 6 -1 226 366 489 814 l477 815 137
-93 c75 -52 417 -284 761 -517 344 -232 630 -429 636 -436 17 -21 34 -17 34 9
0 31 606 2387 617 2397 9 8 2517 560 2546 560 21 0 22 9 3 24 -8 6 -222 267
-476 581 l-462 569 168 38 c93 21 181 39 197 40 15 0 27 5 27 11 0 5 -22 35
-48 66 -142 165 -782 962 -779 969 51 94 744 1270 754 1278 16 14 17 34 2 34
-8 0 -1173 784 -1197 805 -2 2 67 276 153 610 86 334 155 608 153 610 -2 1
-97 -17 -213 -41 -115 -23 -211 -41 -212 -40 -1 1 85 344 192 761 107 417 193
760 192 762 -2 2 -17 -1 -33 -6 -71 -23 -2514 -553 -2527 -548 -7 3 -364 437
-793 965 -428 529 -784 961 -790 961 -6 1 -226 -366 -489 -814z"/>
</g>
</svg>
